<svg width="16" height="16" viewBox="0 0 16 16" fill="none" xmlns="http://www.w3.org/2000/svg">
<path d="M8.12185 0.164062C3.84975 0.164062 0.386749 3.62707 0.386749 7.89916C0.386749 12.1713 3.84975 15.6343 8.12185 15.6343C12.3939 15.6343 15.8569 12.1713 15.8569 7.89916C15.8569 3.62707 12.3939 0.164062 8.12185 0.164062ZM8.12185 1.28488C9.80694 1.28488 11.3451 1.91529 12.5131 2.95257C11.6549 4.0846 10.3511 4.83838 9.04465 5.34851C8.30507 4.00158 7.47621 2.70563 6.56361 1.46936C7.07401 1.34633 7.59722 1.2844 8.12223 1.28488H8.12185ZM5.30782 1.91142C6.17028 3.20164 7.00567 4.39787 7.76874 5.7519C5.83883 6.25197 3.65792 6.55209 1.64332 6.55712C2.06797 4.49649 3.45217 2.78549 5.30782 1.91181V1.91142ZM13.2467 3.71757C14.2025 4.88555 14.7283 6.34628 14.7361 7.85546C13.2061 7.55379 11.6846 7.47489 10.1353 7.63114C9.96125 7.19681 9.75009 6.78415 9.54781 6.33938C10.8833 5.80063 12.3112 4.87861 13.2467 3.71718V3.71757ZM8.30594 6.77525C8.47147 7.1272 8.6633 7.5008 8.84353 7.88253C6.68931 8.8324 4.39778 10.1017 3.20851 12.3271C2.06682 11.0637 1.45837 9.40745 1.51066 7.7054C3.81765 7.69457 6.0821 7.40605 8.30594 6.77525ZM11.8014 8.57869C12.764 8.5789 13.7226 8.70237 14.6538 8.94611C14.5102 9.84192 14.1838 10.6986 13.695 11.4629C13.2062 12.2272 12.5653 12.8827 11.8123 13.3888C11.4572 11.7741 11.1188 10.229 10.5205 8.67112C10.9446 8.60933 11.3725 8.57831 11.801 8.5783L11.8014 8.57869ZM14.6882 8.69858C14.6835 8.73649 14.6793 8.77361 14.6739 8.81074C14.6793 8.77323 14.6839 8.7361 14.6882 8.69858ZM9.29681 8.97318C9.90633 10.5484 10.3848 12.2927 10.7058 13.9902C9.88862 14.3369 9.00988 14.515 8.12223 14.5138C6.65173 14.5159 5.22284 14.0258 4.06324 13.1215C5.26102 11.1785 7.11629 9.70801 9.29642 8.97357L9.29681 8.97318Z" fill="#95E1D3"/>
</svg>
