<svg width="13" height="14" viewBox="0 0 13 14" fill="none" xmlns="http://www.w3.org/2000/svg">
<path d="M6.12321 13.0182C4.45823 13.0182 4.26195 13.0094 3.6122 12.981C3.10551 12.9643 2.60538 12.8613 2.13335 12.6764C1.72941 12.5192 1.36257 12.2797 1.05613 11.9732C0.749694 11.6666 0.510353 11.2997 0.353307 10.8957C0.175511 10.4219 0.0796131 9.92138 0.0697194 9.41546C0.0318174 8.76707 0.0318174 8.55455 0.0318174 6.90243C0.0318174 5.23271 0.0406161 5.03778 0.0697194 4.39142C0.0798295 3.88619 0.175724 3.38634 0.353307 2.91324C0.510172 2.50873 0.749675 2.14138 1.05652 1.83465C1.36336 1.52792 1.73081 1.28856 2.13538 1.13185C2.60823 0.953305 3.1082 0.857157 3.61355 0.847583C4.25992 0.811035 4.47244 0.811035 6.12321 0.811035C7.80172 0.811035 7.99462 0.819834 8.63421 0.847583C9.14048 0.857059 9.64268 0.953168 10.1165 1.13185C10.5209 1.28874 10.8883 1.52817 11.1951 1.83487C11.5019 2.14158 11.7415 2.50884 11.8985 2.91324C12.0792 3.39378 12.176 3.9014 12.1835 4.41375C12.2214 5.06215 12.2214 5.27399 12.2214 6.92544C12.2214 8.57688 12.2119 8.79346 12.1835 9.43441C12.1733 9.94081 12.0772 10.4418 11.8992 10.916C11.7418 11.3203 11.502 11.6874 11.1951 11.9941C10.8882 12.3007 10.5209 12.5402 10.1165 12.6974C9.64268 12.8747 9.14251 12.9708 8.63692 12.981C7.99056 13.0182 7.77871 13.0182 6.12321 13.0182ZM6.1002 1.88244C4.44469 1.88244 4.27278 1.89056 3.62641 1.91967C3.24039 1.92472 2.85809 1.99591 2.49612 2.13016C2.23212 2.23136 1.99224 2.38675 1.79197 2.58632C1.5917 2.7859 1.43546 3.02523 1.33334 3.28888C1.19798 3.65436 1.12691 4.04083 1.12285 4.43067C1.08698 5.08651 1.08698 5.25843 1.08698 6.90243C1.08698 8.5268 1.09307 8.72375 1.12285 9.37553C1.12894 9.76132 1.20001 10.1437 1.33334 10.5058C1.54045 11.0385 1.96279 11.4595 2.4968 11.6639C2.8583 11.799 3.24052 11.8702 3.62641 11.8744C4.28158 11.9123 4.45417 11.9123 6.1002 11.9123C7.76044 11.9123 7.93235 11.9041 8.5733 11.8744C8.95936 11.8697 9.34173 11.7985 9.70359 11.6639C9.96619 11.5619 10.2047 11.4064 10.4039 11.2073C10.6032 11.0081 10.7588 10.7697 10.861 10.5072C10.9963 10.1417 11.0674 9.75455 11.0714 9.3647H11.0789C11.108 8.71766 11.108 8.54507 11.108 6.8916C11.108 5.23812 11.1005 5.06418 11.0714 4.41781C11.0653 4.03234 10.9942 3.65066 10.861 3.28888C10.7591 3.02596 10.6035 2.78715 10.4043 2.58766C10.205 2.38816 9.96639 2.23235 9.70359 2.13016C9.34149 1.9948 8.95909 1.92441 8.5733 1.91967C7.91881 1.88244 7.74758 1.88244 6.1002 1.88244ZM6.12321 10.0287C5.5043 10.0291 4.89918 9.84591 4.38438 9.50237C3.86957 9.15884 3.46821 8.67034 3.23106 8.09868C2.9939 7.52701 2.93161 6.89786 3.05206 6.29079C3.1725 5.68372 3.47028 5.126 3.90772 4.68818C4.34516 4.25036 4.90262 3.9521 5.50959 3.83113C6.11655 3.71016 6.74576 3.7719 7.31763 4.00856C7.8895 4.24522 8.37834 4.64616 8.72233 5.16067C9.06631 5.67517 9.24999 6.28014 9.25012 6.89904C9.24905 7.72827 8.91935 8.52327 8.33325 9.10988C7.74715 9.69648 6.95244 10.0269 6.12321 10.0287ZM6.12321 4.86722C5.72162 4.86722 5.32905 4.98631 4.99514 5.20942C4.66123 5.43253 4.40098 5.74964 4.2473 6.12066C4.09362 6.49168 4.05341 6.89994 4.13176 7.29381C4.2101 7.68768 4.40349 8.04948 4.68745 8.33344C4.97142 8.61741 5.33321 8.81079 5.72708 8.88914C6.12095 8.96748 6.52921 8.92727 6.90023 8.77359C7.27125 8.61991 7.58837 8.35966 7.81148 8.02575C8.03459 7.69184 8.15367 7.29928 8.15367 6.89769C8.15242 6.35956 7.93809 5.84383 7.55758 5.46332C7.17706 5.0828 6.66134 4.86848 6.12321 4.86722ZM9.37195 4.38465C9.27613 4.3843 9.18133 4.36507 9.09294 4.32808C9.00456 4.29108 8.92433 4.23704 8.85683 4.16904C8.72051 4.0317 8.64433 3.84584 8.64504 3.65233C8.64576 3.45882 8.72332 3.27353 8.86066 3.13721C8.99799 3.00089 9.18386 2.92471 9.37736 2.92542C9.57087 2.92614 9.75616 3.0037 9.89248 3.14104C10.0288 3.27837 10.105 3.46424 10.1043 3.65774C10.1036 3.85125 10.026 4.03655 9.88866 4.17287C9.75132 4.30919 9.56545 4.38537 9.37195 4.38465Z" fill="#95E1D3"/>
</svg>
