<svg width="13" height="13" viewBox="0 0 13 13" fill="none" xmlns="http://www.w3.org/2000/svg">
<path d="M6.79868 12.9904H4.09139V4.86854H6.79868V6.22219C7.08368 5.85959 7.4454 5.56457 7.85788 5.35827C8.27037 5.15196 8.72339 5.03951 9.18447 5.02895C9.99083 5.03343 10.7625 5.3575 11.3303 5.93009C11.8981 6.50269 12.2156 7.27708 12.2132 8.08344V12.9904H9.50596V8.42186C9.4536 8.05608 9.27088 7.72153 8.99144 7.47977C8.712 7.23802 8.35465 7.10532 7.98514 7.10611C7.81977 7.11134 7.65715 7.14993 7.50705 7.21955C7.35696 7.28917 7.22247 7.3884 7.11166 7.51127C7.00086 7.63415 6.91602 7.77815 6.86224 7.93462C6.80845 8.09109 6.78683 8.25682 6.79868 8.42186V12.9904ZM2.73775 12.9904H0.0304642V4.86854H2.73775V12.9904ZM1.38411 3.5149C1.0251 3.5149 0.680794 3.37229 0.426937 3.11843C0.17308 2.86457 0.0304642 2.52027 0.0304642 2.16126C0.0304642 1.80225 0.17308 1.45795 0.426937 1.20409C0.680794 0.950233 1.0251 0.807617 1.38411 0.807617C1.74311 0.807617 2.08742 0.950233 2.34128 1.20409C2.59513 1.45795 2.73775 1.80225 2.73775 2.16126C2.73775 2.52027 2.59513 2.86457 2.34128 3.11843C2.08742 3.37229 1.74311 3.5149 1.38411 3.5149Z" fill="#95E1D3"/>
</svg>
