<svg width="11" height="14" viewBox="0 0 11 14" fill="none" xmlns="http://www.w3.org/2000/svg">
<path d="M4.22168 8.99547C3.87921 10.8405 3.46229 12.6097 2.22506 13.5336C1.84401 10.7451 2.78615 8.65029 3.22337 6.42693C2.47752 5.13421 3.31339 2.53183 4.88632 3.17278C6.82203 3.96195 3.20984 7.97956 5.63489 8.48176C8.16687 9.00562 9.20106 3.95857 7.63083 2.3166C5.36213 -0.0529514 1.02709 2.26313 1.56042 5.65603C1.69037 6.48582 2.52219 6.7376 1.89274 7.88278C0.440961 7.55046 0.0077957 6.37144 0.0639718 4.79918C0.153312 2.22726 2.30899 0.425561 4.47075 0.176491C7.20511 -0.138908 9.77094 1.21 10.1249 3.8584C10.5242 6.84724 8.89107 10.0852 5.96788 9.85165C5.17532 9.7887 4.84233 9.38464 4.22168 8.99547Z" fill="#95E1D3"/>
</svg>
