<svg width="12" height="13" viewBox="0 0 12 13" fill="none" xmlns="http://www.w3.org/2000/svg">
<path d="M9.23524 2.71625C9.23524 2.71625 9.58042 3.05466 9.23524 2.71625C8.77258 2.18808 8.51761 1.50977 8.51781 0.807617H6.42643V9.2002C6.4103 9.65436 6.21856 10.0845 5.89158 10.4002C5.56461 10.7158 5.12791 10.8922 4.67346 10.8923C3.71238 10.8923 2.91373 10.1071 2.91373 9.13252C2.91373 7.96839 4.03725 7.09529 5.19461 7.454V5.31525C2.85958 5.00391 0.815582 6.81779 0.815582 9.13252C0.815582 11.3863 2.68361 12.9904 4.66669 12.9904C6.79191 12.9904 8.51781 11.2645 8.51781 9.13252V4.87531C9.36586 5.48435 10.384 5.81112 11.4281 5.80933V3.71795C11.4281 3.71795 10.1557 3.77886 9.23524 2.71625Z" fill="#95E1D3"/>
</svg>
