<svg width="14" height="12" viewBox="0 0 14 12" fill="none" xmlns="http://www.w3.org/2000/svg">
<path d="M12.288 3.18995C12.2968 3.3084 12.2968 3.42616 12.2968 3.54393C12.2968 7.148 9.55367 11.301 4.54046 11.301C2.99595 11.301 1.56109 10.8536 0.353642 10.0766C0.572932 10.1017 0.7841 10.1104 1.01219 10.1104C2.23926 10.1134 3.43158 9.7031 4.39697 8.94564C3.82805 8.93534 3.27654 8.74764 2.81946 8.40874C2.36238 8.06984 2.02254 7.59667 1.84739 7.05528C2.01591 7.08032 2.18512 7.09724 2.36245 7.09724C2.60678 7.09724 2.85246 7.0634 3.08055 7.00452C2.46313 6.87986 1.90794 6.54519 1.50939 6.05743C1.11084 5.56967 0.893537 4.95893 0.894422 4.32904V4.2952C1.25787 4.49757 1.67953 4.62414 2.12624 4.64106C1.75201 4.39238 1.44516 4.05495 1.23306 3.65885C1.02096 3.26275 0.9102 2.82031 0.910665 2.371C0.910665 1.86474 1.04535 1.40044 1.28156 0.995699C1.9666 1.83836 2.821 2.52773 3.78941 3.01916C4.75783 3.5106 5.81868 3.79315 6.90324 3.8485C6.86128 3.64545 6.83556 3.43496 6.83556 3.22379C6.83538 2.86573 6.90577 2.51114 7.04272 2.1803C7.17966 1.84946 7.38047 1.54885 7.63366 1.29566C7.88685 1.04247 8.18745 0.841662 8.5183 0.704719C8.84914 0.567776 9.20373 0.497381 9.56179 0.497559C10.3469 0.497559 11.0555 0.826494 11.5537 1.35848C12.164 1.24045 12.7493 1.01764 13.2836 0.699928C13.0802 1.32992 12.654 1.86413 12.085 2.20247C12.6263 2.14073 13.1553 1.99838 13.6545 1.78013C13.2817 2.32369 12.8197 2.80034 12.288 3.18995Z" fill="#95E1D3"/>
</svg>
