<svg width="14" height="10" viewBox="0 0 14 10" fill="none" xmlns="http://www.w3.org/2000/svg">
<path d="M7.12592 9.64524H7.11238C7.07042 9.64524 2.8721 9.63712 1.81287 9.34947C1.52667 9.27237 1.26574 9.12144 1.05621 8.91179C0.84668 8.70214 0.695897 8.44112 0.618958 8.15488C0.428489 7.08033 0.336511 5.99064 0.344169 4.89937C0.339251 3.80631 0.433718 2.71507 0.626403 1.63912C0.705516 1.3524 0.856996 1.09083 1.0663 0.879507C1.27561 0.668184 1.53572 0.514206 1.82167 0.43235C2.85179 0.161621 6.93438 0.161621 7.10764 0.161621H7.12186C7.16449 0.161621 11.3736 0.169743 12.422 0.457392C13.0034 0.615091 13.4576 1.06924 13.6146 1.65063C13.8109 2.72948 13.9036 3.8239 13.8901 4.92035C13.8948 6.01208 13.8001 7.10198 13.6072 8.17654C13.5292 8.46247 13.3778 8.72303 13.168 8.93236C12.9582 9.14168 12.6973 9.29248 12.4112 9.36977C11.3824 9.64253 7.29918 9.64524 7.12592 9.64524ZM5.77227 2.87229L5.76889 6.93322L9.29648 4.90275L5.77227 2.87229Z" fill="#95E1D3"/>
</svg>
