<svg width="14" height="10" fill="none" xmlns="http://www.w3.org/2000/svg"><path d="M7.126 9.645h-.014c-.042 0-4.24-.008-5.3-.296A1.692 1.692 0 0 1 .62 8.155a17.932 17.932 0 0 1-.275-3.256A18.067 18.067 0 0 1 .626 1.64 1.735 1.735 0 0 1 1.822.432c1.03-.27 5.112-.27 5.286-.27h.014c.042 0 4.252.008 5.3.295a1.694 1.694 0 0 1 1.193 1.194c.196 1.078.289 2.173.275 3.27a17.99 17.99 0 0 1-.283 3.256 1.7 1.7 0 0 1-1.196 1.193c-1.029.273-5.112.275-5.285.275ZM5.772 2.872 5.77 6.933l3.527-2.03-3.524-2.03Z" fill="#95E1D3"/></svg>