<svg width="16" height="16" fill="none" xmlns="http://www.w3.org/2000/svg"><path d="M8.122.164a7.735 7.735 0 1 0 0 15.47 7.735 7.735 0 0 0 0-15.47Zm0 1.12c1.685 0 3.223.631 4.391 1.669-.858 1.132-2.162 1.885-3.468 2.396a34.451 34.451 0 0 0-2.481-3.88 6.625 6.625 0 0 1 1.558-.184Zm-2.814.627c.862 1.29 1.698 2.487 2.46 3.84-1.93.501-4.11.801-6.125.806a6.627 6.627 0 0 1 3.665-4.645Zm7.939 1.807a6.588 6.588 0 0 1 1.49 4.137 15.518 15.518 0 0 0-4.602-.224c-.174-.434-.385-.847-.587-1.292 1.335-.538 2.763-1.46 3.699-2.622ZM8.306 6.775c.165.352.357.726.538 1.108-2.155.95-4.446 2.219-5.635 4.444A6.591 6.591 0 0 1 1.51 7.705c2.307-.01 4.571-.299 6.795-.93ZM11.8 8.58c.963 0 1.922.123 2.853.367a6.615 6.615 0 0 1-2.842 4.443c-.355-1.615-.693-3.16-1.291-4.718a8.883 8.883 0 0 1 1.28-.093Zm2.887.12-.014.112.014-.112Zm-5.391.274a29.179 29.179 0 0 1 1.409 5.017 6.592 6.592 0 0 1-2.584.524 6.585 6.585 0 0 1-4.059-1.393 9.836 9.836 0 0 1 5.233-4.147Z" fill="#95E1D3"/></svg>