<svg width="73" height="74" fill="none" xmlns="http://www.w3.org/2000/svg"><path d="M37.5 71.333a35.375 35.375 0 0 1-16.292-3.958 2.087 2.087 0 0 1 1.917-3.708 31.334 31.334 0 1 0-12.5-11.542A2.125 2.125 0 0 1 9.917 55a2.083 2.083 0 0 1-2.875-.708A35.417 35.417 0 0 1 61.583 9.958 35.416 35.416 0 0 1 44 70.75a34.57 34.57 0 0 1-6.5.583Z" fill="#95E1D3"/><path d="M5.167 73.5A4.917 4.917 0 0 1 .75 66.625l6.333-14.25a2.125 2.125 0 0 1 2.792-1.042 2.083 2.083 0 0 1 1.042 2.75l-6.375 14.25a.625.625 0 0 0 0 .75.71.71 0 0 0 .75.209l16.041-5.709A2.043 2.043 0 0 1 24 64.833a2.083 2.083 0 0 1-1.25 2.667L6.833 73.21a4.667 4.667 0 0 1-1.666.291Z" fill="#95E1D3"/></svg>