<svg width="148" height="19" fill="none" xmlns="http://www.w3.org/2000/svg"><path d="M12.13 4.536c-.4-.448-1.016-.856-1.848-1.224-.832-.368-1.76-.552-2.784-.552-1.312 0-2.28.248-2.904.744-.624.496-.936 1.176-.936 2.04 0 .608.16 1.088.48 1.44.32.352.808.64 1.464.864.672.224 1.52.456 2.544.696 1.184.256 2.208.568 3.072.936.864.368 1.528.864 1.992 1.488.464.608.696 1.424.696 2.448 0 1.088-.272 1.984-.816 2.688-.544.704-1.288 1.224-2.232 1.56-.928.336-1.976.504-3.144.504-2.656 0-4.968-.8-6.936-2.4l1.032-1.824c.352.352.824.704 1.416 1.056a10.15 10.15 0 0 0 2.064.888 8.956 8.956 0 0 0 2.472.336c1.216 0 2.16-.216 2.832-.648.672-.448 1.008-1.096 1.008-1.944 0-.64-.192-1.152-.576-1.536-.368-.384-.92-.704-1.656-.96a29.448 29.448 0 0 0-2.688-.768c-1.152-.288-2.12-.6-2.904-.936-.784-.352-1.376-.808-1.776-1.368-.384-.56-.576-1.288-.576-2.184 0-1.088.264-2.008.792-2.76.528-.752 1.256-1.32 2.184-1.704C5.33 1.032 6.378.84 7.546.84c1.136 0 2.168.176 3.096.528a8.654 8.654 0 0 1 2.496 1.416L12.13 4.536ZM23.779 18.12c-1.36 0-2.504-.232-3.432-.696-.928-.48-1.672-1.12-2.232-1.92a8.454 8.454 0 0 1-1.224-2.76 13.013 13.013 0 0 1-.384-3.168V.96h2.16v8.616c0 .832.08 1.648.24 2.448.176.784.456 1.488.84 2.112.384.624.904 1.12 1.56 1.488.656.368 1.472.552 2.448.552.992 0 1.816-.184 2.472-.552a4.418 4.418 0 0 0 1.56-1.512c.384-.64.656-1.352.816-2.136.176-.784.264-1.584.264-2.4V.96h2.16v8.616c0 1.152-.136 2.248-.408 3.288-.256 1.024-.672 1.928-1.248 2.712-.576.784-1.328 1.408-2.256 1.872-.912.448-2.024.672-3.336.672ZM34.864 18V.96h7.104c.752 0 1.44.16 2.064.48.624.304 1.168.72 1.632 1.248a5.636 5.636 0 0 1 1.08 1.752c.256.64.384 1.296.384 1.968 0 .928-.208 1.816-.624 2.664-.416.832-1 1.512-1.752 2.04-.752.512-1.632.768-2.64.768h-5.088V18h-2.16Zm2.16-8.04h4.968c.592 0 1.104-.16 1.536-.48.448-.32.792-.752 1.032-1.296a4.118 4.118 0 0 0 .384-1.776c0-.672-.144-1.272-.432-1.8-.288-.544-.664-.968-1.128-1.272a2.744 2.744 0 0 0-1.536-.456h-4.824v7.08Zm24.361 6.12V18H49.817V.96H61.17v1.92h-9.192V8.4h7.992v1.8h-7.992v5.88h9.408ZM64.35 18V.96h7.296c.752 0 1.44.16 2.064.48.624.304 1.168.72 1.632 1.248a5.636 5.636 0 0 1 1.08 1.752c.256.64.384 1.296.384 1.968a5.57 5.57 0 0 1-.456 2.232 4.924 4.924 0 0 1-1.248 1.8 4.31 4.31 0 0 1-1.872 1.032L77.357 18h-2.448l-3.888-6.12h-4.512V18h-2.16Zm2.16-8.04h5.16c.592 0 1.104-.16 1.536-.48a3.259 3.259 0 0 0 1.032-1.32 4.063 4.063 0 0 0 .384-1.752c0-.64-.144-1.224-.432-1.752a3.567 3.567 0 0 0-1.13-1.296 2.647 2.647 0 0 0-1.536-.48h-5.016v7.08Zm31.245-7.08h-5.88V18h-2.16V2.88h-5.88V.96h13.92v1.92Zm14.022 13.2V18h-11.568V.96h11.352v1.92h-9.192V8.4h7.992v1.8h-7.992v5.88h9.408ZM119.923.96h1.824l6.96 17.04h-2.304l-2.016-4.992h-7.152L115.243 18h-2.304L119.923.96Zm3.984 10.368-3.072-7.872-3.168 7.872h6.24ZM145.717 18V4.992L140.101 15h-1.32l-5.64-10.008V18h-2.16V.96h2.28l6.168 11.064L145.621.96h2.256V18h-2.16Z" fill="#fff"/></svg>