<svg width="13" height="14" fill="none" xmlns="http://www.w3.org/2000/svg"><path d="M6.123 13.018c-1.665 0-1.861-.009-2.51-.037a4.457 4.457 0 0 1-1.48-.305 3.127 3.127 0 0 1-1.78-1.78 4.461 4.461 0 0 1-.283-1.48c-.038-.65-.038-.862-.038-2.515 0-1.67.009-1.864.038-2.51a4.46 4.46 0 0 1 .283-1.479 3.12 3.12 0 0 1 1.782-1.781A4.422 4.422 0 0 1 3.614.848C4.26.81 4.472.81 6.124.81c1.678 0 1.87.009 2.51.037a4.44 4.44 0 0 1 1.482.284A3.124 3.124 0 0 1 11.9 2.913c.18.48.277.988.285 1.5.037.65.037.861.037 2.512 0 1.652-.01 1.868-.037 2.51a4.472 4.472 0 0 1-.285 1.481 3.13 3.13 0 0 1-1.782 1.781 4.48 4.48 0 0 1-1.48.284c-.646.037-.858.037-2.514.037ZM6.1 1.882c-1.655 0-1.827.009-2.474.038a3.377 3.377 0 0 0-1.13.21 2.024 2.024 0 0 0-1.163 1.16 3.39 3.39 0 0 0-.21 1.142c-.036.656-.036.827-.036 2.471 0 1.625.006 1.822.036 2.474.006.385.077.768.21 1.13.207.533.63.954 1.164 1.158a3.33 3.33 0 0 0 1.13.21c.655.038.827.038 2.473.038 1.66 0 1.832-.008 2.473-.038a3.36 3.36 0 0 0 1.13-.21 2.03 2.03 0 0 0 1.158-1.157c.135-.365.206-.752.21-1.142h.008c.029-.647.029-.82.029-2.473 0-1.654-.008-1.828-.037-2.474a3.424 3.424 0 0 0-.21-1.13A2.032 2.032 0 0 0 9.704 2.13a3.344 3.344 0 0 0-1.13-.21c-.655-.038-.826-.038-2.474-.038Zm.023 8.147A3.129 3.129 0 1 1 6.12 3.77a3.129 3.129 0 0 1 .004 6.258Zm0-5.162a2.03 2.03 0 1 0 0 4.061 2.03 2.03 0 0 0 0-4.06Zm3.249-.482a.73.73 0 1 1 .005-1.46.73.73 0 0 1-.005 1.46Z" fill="#95E1D3"/></svg>