<svg width="14" height="12" fill="none" xmlns="http://www.w3.org/2000/svg"><path d="M12.288 3.19c.009.118.009.236.009.354 0 3.604-2.743 7.757-7.757 7.757a7.703 7.703 0 0 1-4.186-1.224c.219.025.43.033.658.033a5.462 5.462 0 0 0 3.385-1.164 2.732 2.732 0 0 1-2.55-1.89c.169.024.338.041.515.041a2.9 2.9 0 0 0 .719-.092A2.726 2.726 0 0 1 .894 4.329v-.034a2.75 2.75 0 0 0 1.232.346 2.722 2.722 0 0 1-1.215-2.27c0-.506.134-.97.37-1.375a7.754 7.754 0 0 0 5.622 2.853 3.098 3.098 0 0 1-.067-.625A2.725 2.725 0 0 1 9.562.498c.785 0 1.494.328 1.992.86A5.385 5.385 0 0 0 13.284.7a2.72 2.72 0 0 1-1.199 1.502 5.464 5.464 0 0 0 1.57-.422 5.85 5.85 0 0 1-1.367 1.41Z" fill="#95E1D3"/></svg>